<svg xmlns="http://www.w3.org/2000/svg" width="24" height="19.51" viewBox="0 0 24 19.51">
  <path id="Path_28" data-name="Path 28" d="M33.1,12.478l4.674,1.273V.258c0-.143.168-.258.374-.258H41.9c.207,0,.374.115.374.258V13.751l4.676-1.273a.489.489,0,0,1,.436.085.2.2,0,0,1,0,.313l-7.059,6.33a.457.457,0,0,1-.3.1.452.452,0,0,1-.3-.1l-7.06-6.33a.211.211,0,0,1-.077-.157.214.214,0,0,1,.075-.156A.489.489,0,0,1,33.1,12.478ZM56.589,19.51H54.98L54.072,18H51.339l-.883,1.505H48.884l3.043-5.04h1.6Zm-2.9-2.243-.728-1.2c-.1-.171-.188-.333-.264-.49-.084.173-.166.33-.25.48l-.73,1.214h1.972Zm1.9-8.942H49.442V9.1h4.133l-4.537,3.734v.532h6.614v-.774H51.078l4.511-3.719V8.325Z" transform="translate(-32.589)" fill="#fff"/>
</svg>
