<svg xmlns="http://www.w3.org/2000/svg" width="24" height="19.509" viewBox="0 0 24 19.509">
  <path id="Path_27" data-name="Path 27" d="M27.792,12.608l4.674,1.287V.261c0-.144.168-.261.375-.261h3.747c.206,0,.374.117.374.261V13.895l4.674-1.287a.485.485,0,0,1,.436.086.2.2,0,0,1,0,.316l-7.059,6.4a.483.483,0,0,1-.594,0l-7.06-6.4a.214.214,0,0,1-.077-.159.218.218,0,0,1,.075-.158A.486.486,0,0,1,27.792,12.608ZM51.28,12.5H49.671l-.908-1.521H46.03L45.147,12.5H43.575l3.044-5.092h1.605Zm-2.9-2.266-.728-1.216c-.1-.173-.189-.337-.264-.495-.084.175-.166.334-.25.485l-.73,1.226h1.972Zm1.9,3.422H44.133v.782h4.133l-4.537,3.773v.538h6.614v-.782H45.768l4.511-3.758v-.553h0Z" transform="translate(-27.28)" fill="#fff"/>
</svg>
